<svg xmlns="http://www.w3.org/2000/svg" width="100vw" height="100vw">
<g stroke-width="6" fill="none" fill-rule="evenodd" stroke-linecap="round">
<path stroke="#F9C7C5" stroke-linejoin="round" d="M74.449 553.791l32.547-14.558-32.546-14.515" style = "transform: translateY(-100px)"/>
<!-- <path d="M682.733 192.301c0-46.137 37.401-83.538 83.54-83.538 46.138 0 83.539 37.401 83.539 83.538" stroke="#67BECE" stroke-linejoin="round"/> -->
<path stroke="#F9C7C5" stroke-linejoin="round" d="M281.667 109.932h-18.181V3.273h18.181" style="transform:translateY(-30px)"/>
 <path d="M3.883 183.061s-3.163-15.22 8.311-23.638M19.569 183.061s-3.163-15.22 8.31-23.638" stroke="#67BECE" style= "transform:translateX(30px)"/>
<!--<path d="M776.489 291.067h39.568M816.057 315.51h-39.568" stroke="#E3EBF1" stroke-linejoin="round"/> -->

<circle xmlns="http://www.w3.org/2000/svg" stroke="#E3EBF1" stroke-width="6" stroke-linecap="round" stroke-linejoin="round" cx="825.628" cy="459.978" r="61.179"/>
</g>
<g xmlns="http://www.w3.org/2000/svg" fill="#69BED0" fill-rule="nonzero" stroke="#69BED0" style="transform:translate(200px, 700px)"><circle cx="4" cy="4" r="4"/><circle cx="28" cy="4" r="4"/><circle cx="4" cy="16" r="4"/><circle cx="28" cy="16" r="4"/><circle cx="4" cy="28" r="4"/><circle cx="28" cy="28" r="4"/><circle cx="16" cy="40" r="4"/><circle cx="28" cy="40" r="4"/><circle cx="16" cy="52" r="4"/><circle cx="16" cy="4" r="4"/><circle cx="16" cy="16" r="4"/><circle cx="16" cy="28" r="4"/><circle cx="4" cy="40" r="4"/><circle cx="4" cy="52" r="4"/><circle cx="28" cy="52" r="4"/><circle cx="4" cy="64" r="4"/><circle cx="16" cy="64" r="4"/><circle cx="28" cy="64" r="4"/></g>
<g xmlns="http://www.w3.org/2000/svg" fill="#F9C7C5" style="transform: scale(1.5)"><path d="M41.71 24.798a.744.744 0 0 1-.53-.22l-3.273-3.274-3.273 3.273a.75.75 0 1 1-1.061-1.061l3.804-3.804a.749.749 0 0 1 1.06 0l3.804 3.805a.75.75 0 0 1-.531 1.281z"/><path d="M49.316 24.798a.746.746 0 0 1-.53-.22l-3.273-3.274-3.272 3.273a.75.75 0 1 1-1.061-1.061l3.803-3.804a.773.773 0 0 1 1.061 0l3.804 3.805a.75.75 0 0 1-.532 1.281z"/><path d="M56.924 24.798a.746.746 0 0 1-.531-.22l-3.272-3.274-3.273 3.273a.75.75 0 1 1-1.061-1.061l3.804-3.804a.75.75 0 0 1 1.06 0l3.803 3.805a.75.75 0 0 1-.53 1.281z"/><path d="M64.529 24.798a.744.744 0 0 1-.529-.22l-3.273-3.274-3.273 3.273a.75.75 0 1 1-1.061-1.061l3.803-3.804a.773.773 0 0 1 1.061 0l3.805 3.805a.75.75 0 0 1-.533 1.281z"/><path d="M72.137 24.798a.746.746 0 0 1-.53-.22l-3.274-3.274-3.271 3.273a.75.75 0 1 1-1.061-1.061l3.803-3.804a.773.773 0 0 1 1.061 0l3.804 3.805a.75.75 0 0 1-.532 1.281z"/><g><path d="M79.743 24.798a.744.744 0 0 1-.53-.22l-3.273-3.274-3.272 3.273a.75.75 0 1 1-1.061-1.061l3.803-3.804a.773.773 0 0 1 1.061 0l3.804 3.805a.75.75 0 0 1-.532 1.281z"/><path d="M87.35 24.798a.746.746 0 0 1-.53-.22l-3.273-3.274-3.272 3.273a.75.75 0 1 1-1.061-1.061l3.803-3.804a.773.773 0 0 1 1.061 0l3.804 3.805a.75.75 0 0 1-.532 1.281z"/><path d="M94.957 24.798a.746.746 0 0 1-.531-.22l-3.272-3.274-3.273 3.273a.75.75 0 1 1-1.061-1.061l3.804-3.804a.75.75 0 0 1 1.06 0l3.803 3.805a.75.75 0 0 1-.53 1.281z"/><path d="M102.562 24.798a.744.744 0 0 1-.529-.22l-3.273-3.274-3.273 3.273a.75.75 0 1 1-1.061-1.061l3.804-3.804a.749.749 0 0 1 1.06 0l3.804 3.805a.75.75 0 0 1-.532 1.281z"/><path d="M110.17 24.798a.746.746 0 0 1-.53-.22l-3.273-3.274-3.272 3.273a.75.75 0 1 1-1.061-1.061l3.803-3.804a.75.75 0 0 1 1.06 0l3.804 3.805a.75.75 0 0 1-.531 1.281z"/></g></g>
</svg>
